/* XPM */
static char *_3200c810c01406c90476f471833a178vfdk2acUOlozcLaq[] = {
/* columns rows colors chars-per-pixel */
"32 32 3 1 ",
"  c black",
". c #6F3198",
"X c #546D8E",
/* pixels */
"                                ",
" X.....X.....X.....X.....X....X ",
" .X...X.X...X.X...X.X...X.X..X. ",
" ..X.X...X.X...X.X...X.X...XX.. ",
" ...X.....X.....X.....X....XX.. ",
" ..X.X...X.X...X.X...X.X..X..X. ",
" .X...X.X...X.X...X.X...XX....X ",
" X.....X.....X.....X....XX...X. ",
" .X...X.X...X.X...X.X..X..X.X.. ",
" ..X.X...X.X...X.X...XX....X... ",
" ...X.....X.....X....XX...X.X.. ",
" ..X.X...X.X...X.X..X..X.X...X. ",
" .X...X.X...X.X...XX....X.....X ",
" X.....X.....X....XX...X.X...X. ",
" .X...X.X...X.X..X..X.X...X.X.. ",
" ..X.X...X.X...XX....X.....X... ",
" ...X.....X....XX...X.X...X.X.. ",
" ..X.X...X.X..X..X.X...X.X...X. ",
" .X...X.X...XX....X.....X.....X ",
" X.....X....XX...X.X...X.X...X. ",
" .X...X.X..X..X.X...X.X...X.X.. ",
" ..X.X...XX....X.....X.....X... ",
" ...X....XX...X.X...X.X...X.X.. ",
" ..X.X..X..X.X...X.X...X.X...X. ",
" .X...XX....X.....X.....X.....X ",
" X....XX...X.X...X.X...X.X...X. ",
" .X..X..X.X...X.X...X.X...X.X.. ",
" ..XX....X.....X.....X.....X... ",
" ..XX...X.X...X.X...X.X...X.X.. ",
" .X..X.X...X.X...X.X...X.X...X. ",
" X....X.....X.....X.....X.....X ",
"                                "
};
