/* XPM */
static char *_403cea784c8405ac4344957a98b08aaPpbnQQnNxEwW67ll[] = {
/* columns rows colors chars-per-pixel */
"32 32 3 1 ",
"  c black",
". c #703704",
"X c #9C5A3C",
/* pixels */
"                                ",
" ........X......X.....X........ ",
" ........X......X.....X........ ",
" ........XXXXXXXXXXXXXX........ ",
" ........X.....X......X........ ",
" XXXXXXXXX.....X......XXXXXXXXX ",
" ......X.......X......X...X.... ",
" ......X.......XXXXXXXX...X.... ",
" ......XXXXXXXXX..X.......X.... ",
" XXXXXXX...X......X.......X.... ",
" ....X.....X......X.......XXXXX ",
" ....X.....XXXXXXXX.......X.... ",
" ....XXXXXXX...X..XXXXXXXXX.... ",
" ....X..X......X....X..X....... ",
" XXXXX..X......X....X..X....... ",
" ...X...XXXXXXXX....X..XXXXXXXX ",
" ...X.....X....XXXXXX......X... ",
" ...X.....X.....X...X......X... ",
" ...X.....X.....X...XXXXXXXX... ",
" ...XXXXXXXXXXXXX...X......X... ",
" XXXX..X......X.....X......XXXX ",
" ......X......X.....XXX.....X.. ",
" ......XXXXXX.XXXXXXX.X.....X.. ",
" ......X....XXX..X....X.....X.. ",
" XXXXXXX....X....X....XXXXXXX.. ",
" ...X.......X....X....X...X.... ",
" ...X.......X....X....X...X.... ",
" ...XXXXXXX.XXXXXXXX..X...X.... ",
" ...X.....X.X......XXXX...XXXXX ",
" ...X.....XXX......X......X.... ",
" ...X.....X........X......X.... ",
"                                "
};
