/* XPM */
static char *d529641049eb4d2fbe68f7277658f9a1smeaDSbKCI8FWhFA[] = {
/* columns rows colors chars-per-pixel */
"32 32 3 1 ",
"  c black",
". c #A33F3F",
"X c #00B7EF",
/* pixels */
"                                ",
" ........X.........X........... ",
" ........X.........X........... ",
" ........X.........XXXXX....... ",
" ........X.........X...X....... ",
" ........X.........X...X....... ",
" ........X.........X...X....... ",
" ........XXXXXXXXXXX...X....... ",
" ........X.....X.......X....... ",
" XXXXXXXXX.....X.......XXXXXXXX ",
" ......X.......X.......X....... ",
" ......X.......X.......X....... ",
" ......X.......XXXXXXXXX....... ",
" ......X.......X...X........... ",
" ......X.......X...X........... ",
" ......XXXXXXXXX...X........... ",
" ......X...X.......X........... ",
" XXXXXXX...X.......XXXXXXXXXXXX ",
" ..........X.............X..... ",
" ..........X.............X..... ",
" ..........X.............X..... ",
" ..........XXXXXXXXXXXXXXX..... ",
" XXXXXXXXXXX..X........X....... ",
" ......X......X........X....... ",
" ......X......X........X....... ",
" ......X......X........X....... ",
" ......X......X........X....... ",
" ......X......X........X....... ",
" ......X......XXXXXXXXXX....... ",
" ......X...............X....... ",
" ......X...............X....... ",
"                                "
};
