/* XPM */
static char *e20f65c28d574884ac60e33c0e8ec31bqIasV77N2BoVpgRc[] = {
/* columns rows colors chars-per-pixel */
"32 32 9 1 ",
"  c black",
". c #703704",
"X c #B02929",
"o c #A33F3F",
"O c #22B14C",
"+ c #FFF200",
"@ c #E5AA7A",
"# c #709AD1",
"$ c white",
/* pixels */
"                                ",
" O+oo@.X+.@.XO@@XX..+..O+@+@+X+ ",
" @+oo@o.@@..@+@@X........O..@$X ",
" @oo.XooO+XX..+X@O..+..X+.oo$$X ",
" +o.Ooooo.+.+.++$$....o.$$@$.+$ ",
" oo+....oo.O@+$$$.O@.+ooo$$.$o$ ",
" ooo...o....O$$XX..+..oo$+o.$$$ ",
" ooooo.ooo..$.++$.O$$+$$oo$$$$$ ",
" o@..o..#@@.$+$+$.+.+.$..$$#o## ",
" O@.o+o@..$#$.+$$$+.$$o$$$##$@o ",
" oo..o.##+$#$..$..++o+$o#+$$$$$ ",
" o.@####+$$.$....$..$$$#oo#$#o$ ",
" X..#o.#.+$.$$$$+.+.$+.##o$o$$$ ",
" ++X###+##$#$..$$..$$Ooo#$XX$$$ ",
" X@.X#+###$#.$$.$$....#o+#$#oXo ",
" ++##..#X##..##$..$O...####..@# ",
" ...#.#$$$#ooo#$...+.+..####..# ",
" ..@#$$#$o.#.#..oo...+++...#@X# ",
" +$$.#$.o$$#oo..+o+.++..X..##.# ",
" O$$..#o$#Oo$ooo@o.+O..@X$$#$$$ ",
" .$+$.#$$$oo$ooo..o+@+..oo+.$$$ ",
" O$+..$$$X$o$.o+.o.o...$o$$o++$ ",
" $.+O$.$+$o$$XoX.ooo.oo$o+o.o.. ",
" ...$+$+o$$o$o.o.o+.##.$$$$o$$. ",
" $@..$##$$$.#@#oo..#+.o.o$..o.X ",
" ...#$$.$oX$o#.o#o.#+oo#$$#$$oo ",
" .+##$.#.$$$ooo#.##.++#o+o#X..o ",
" ..#..$$$$$$XX#...+oo.+#$$$$$$@ ",
" +..##+$$#@##.####@+#@O#.$$$$$. ",
" .+.X##+.#X..#@.##+#o+o.ooo$$oo ",
" +...#.###X##.XX.#+O..o#.oo..$@ ",
"                                "
};
